<svg xmlns="http://www.w3.org/2000/svg" xmlns:xlink="http://www.w3.org/1999/xlink" viewBox="0 0 58.889 49.143">
  <defs>
    <style>
      .cls-1, .cls-2, .cls-6, .cls-8 {
        fill: none;
      }

      .cls-1, .cls-2 {
        stroke: #f8472b;
      }

      .cls-1, .cls-2, .cls-6 {
        stroke-width: 0.75px;
      }

      .cls-2 {
        stroke-linecap: round;
      }

      .cls-3 {
        clip-path: url(#clip-path);
      }

      .cls-4 {
        clip-path: url(#clip-path-2);
      }

      .cls-5 {
        clip-path: url(#clip-path-3);
      }

      .cls-6 {
        stroke: #f54a35;
      }

      .cls-7 {
        stroke: none;
      }
    </style>
    <clipPath id="clip-path">
      <rect id="矩形_3143" data-name="矩形 3143" width="16.397" height="16.397"/>
    </clipPath>
    <clipPath id="clip-path-2">
      <rect id="矩形_3141" data-name="矩形 3141" class="cls-1" width="5.078" height="2.397"/>
    </clipPath>
    <clipPath id="clip-path-3">
      <rect id="矩形_3142" data-name="矩形 3142" class="cls-1" width="7.191" height="2.877"/>
    </clipPath>
  </defs>
  <g id="Group_9720" data-name="Group 9720" transform="translate(163.806 -56.125)">
    <g id="组_9719" data-name="组 9719" transform="translate(-163.431 56.5)">
      <g id="组_9721" data-name="组 9721" transform="translate(0 0)">
        <path id="路径_9510" data-name="路径 9510" class="cls-2" d="M58.137,43.838V0H0" transform="translate(0.002 4.555)"/>
        <path id="路径_9511" data-name="路径 9511" class="cls-2" d="M52.082,4.554V4.039c0-2.828-1.1-4.039-3.528-4.039H0" transform="translate(6.056 0)"/>
      </g>
      <g id="矩形_3145" data-name="矩形 3145" class="cls-1" transform="translate(16.386 32.062)">
        <rect class="cls-7" width="31.349" height="5.552" rx="2.776"/>
        <rect class="cls-8" x="0.375" y="0.375" width="30.599" height="4.802" rx="2.401"/>
      </g>
      <line id="直线_2121" data-name="直线 2121" class="cls-2" x2="10.152" transform="translate(31.65 15.82)"/>
      <line id="直线_2122" data-name="直线 2122" class="cls-2" x2="16.074" transform="translate(31.65 20.103)"/>
      <path id="路径_9512" data-name="路径 9512" class="cls-1" d="M8834.986,1676.139h-.659v30.816h36.947v-.667" transform="translate(-8823.551 -1665.135)"/>
      <g id="Alert_o" class="cls-3" transform="translate(15.6 12.164)">
        <g id="组_9713" data-name="组 9713" transform="translate(1.023 0)">
          <g id="组_9711" data-name="组 9711" class="cls-4" transform="translate(9.556 2.397) rotate(180)">
            <g id="椭圆_213" data-name="椭圆 213" class="cls-1" transform="translate(0.565 -1.763)">
              <ellipse class="cls-7" cx="1.693" cy="1.763" rx="1.693" ry="1.763"/>
              <ellipse class="cls-8" cx="1.693" cy="1.763" rx="1.318" ry="1.388"/>
            </g>
          </g>
          <g id="组_9712" data-name="组 9712" class="cls-5" transform="translate(3.703 13.487)">
            <g id="椭圆_214" data-name="椭圆 214" class="cls-1" transform="translate(1.438 -2.157)">
              <circle class="cls-7" cx="2.157" cy="2.157" r="2.157"/>
              <circle class="cls-8" cx="2.157" cy="2.157" r="1.782"/>
            </g>
          </g>
          <path id="路径_9509" data-name="路径 9509" class="cls-1" d="M-22514.932-11101.55h14.7v-.889s-3.1-.717-3.189-5.371-2.809-4.687-2.809-4.687h-2.838s-2.82.491-2.713,4.687a5.64,5.64,0,0,1-3.15,5.5Z" transform="translate(22514.934 11115.036)"/>
        </g>
      </g>
      <line id="直线_2117" data-name="直线 2117" class="cls-6" y1="31.975" transform="translate(12.731 8.199)"/>
      <line id="直线_2119" data-name="直线 2119" class="cls-6" y1="31.975" transform="translate(51.265 8.199)"/>
      <line id="直线_2118" data-name="直线 2118" class="cls-6" x1="38.534" transform="translate(12.731 8.199)"/>
      <line id="直线_2120" data-name="直线 2120" class="cls-6" x1="38.534" transform="translate(12.731 40.174)"/>
    </g>
  </g>
</svg>
