<?xml version="1.0" encoding="UTF-8"?>
<svg width="19px" height="23px" viewBox="0 0 19 23" version="1.1" xmlns="http://www.w3.org/2000/svg" xmlns:xlink="http://www.w3.org/1999/xlink">
    <!-- Generator: Sketch 50.2 (55047) - http://www.bohemiancoding.com/sketch -->
    <title>Group</title>
    <desc>Created with Sketch.</desc>
    <defs></defs>
    <g id="Page-1" stroke="none" stroke-width="1" fill="none" fill-rule="evenodd">
        <g id="Desktop-1" transform="translate(-997.000000, -506.000000)">
            <g id="Group" transform="translate(997.000000, 506.000000)">
                <g id="Group-5" fill="#000000" fill-rule="nonzero">
                    <g id="导航_客服">
                        <polygon id="Shape" points="3 12 4 12 4 19 3 19 3 12"></polygon>
                        <path d="M18.2890804,12.4994545 C18.8238246,9.01494654 19.2673721,0 9.49896367,0 C-0.269444747,0 0.17410276,9.01494654 0.708846951,12.4994545 C0.286025963,13.1897229 0,14.1162994 0,15.1403011 C0,17.2712197 1.22700993,19 2.37525908,19 C2.37940439,18.9813441 2.37525908,11.2619463 2.37525908,11.2806022 C2.08301516,11.2806022 1.78869859,11.3946105 1.50681793,11.5956797 C1.27675357,9.51036439 0.839424021,0.856098625 9.49896367,0.856098625 C18.1585033,0.856098625 17.7211738,9.50829151 17.4911094,11.5956797 C17.2113014,11.3946105 16.9149122,11.2806022 16.6247409,11.2806022 C16.6268136,11.2619463 16.6205956,18.9813441 16.6247409,19 C17.7729901,19 19,17.2712197 19,15.1403011 C18.9979273,14.1162994 18.7119014,13.1897229 18.2890804,12.4994545 Z" id="Shape"></path>
                        <polygon id="Shape" points="15 12 16 12 16 19 15 19 15 12"></polygon>
                    </g>
                </g>
                <path d="M17.3801168,18.1738122 C17.3801168,20.9885919 15.3990361,22.3016931 11.4368745,22.1131159" id="Path-3" stroke="#000000" stroke-width="0.7"></path>
                <rect id="Rectangle-2" fill="#000000" x="8" y="21" width="4" height="2" rx="1"></rect>
            </g>
        </g>
    </g>
</svg>