<?xml version="1.0" encoding="UTF-8" standalone="no"?>
<svg width="28px" height="28px" viewBox="0 0 28 28" version="1.1" xmlns="http://www.w3.org/2000/svg" xmlns:xlink="http://www.w3.org/1999/xlink">
    <!-- Generator: Sketch 50.2 (55047) - http://www.bohemiancoding.com/sketch -->
    <title>Artboard 10</title>
    <desc>Created with Sketch.</desc>
    <defs></defs>
    <g id="Page-1" stroke="none" stroke-width="1" fill="none" fill-rule="evenodd">
        <g id="Artboard-10" transform="translate(-1.000000, -2.000000)" stroke="#000000">
            <g id="Group" transform="translate(3.500000, 3.500000)">
                <path d="M12.2898172,0.00109962651 C7.25655754,0.0641074987 2.75686875,3.15289727 0.888977097,7.82715155 C-0.978914553,12.5014058 0.152846411,17.8405948 3.75651446,21.3550291 C7.36018251,24.8694635 12.726065,25.867024 17.3520253,23.8825433 C21.9779856,21.8980627 24.9530048,17.322357 24.8898172,12.2890996 C24.8509242,8.98795159 23.500966,5.83775 21.1374608,3.5327697 C18.7739556,1.22778939 15.5909027,-0.0427740465 12.2898172,0.00109962651 Z" id="Shape-Copy" stroke-width="0.9"></path>
                <path d="M9.42212257,12.4509652 C8.55842833,11.9010668 8.06651323,10.9212613 8.14145857,9.90011531 C8.15604104,8.7396052 8.63829157,7.6340784 9.47898263,6.83393161 C10.3196737,6.03378482 11.4476691,5.6067235 12.6074832,5.64947507 C14.8611202,5.63750443 16.7079288,7.43508557 16.7568346,9.68822363 C16.7568346,12.3450193 15.1594973,14.1484271 13.1395409,14.1484271 C12.538797,14.1095338 11.989482,13.7960077 11.6504779,13.2985319 C11.2219164,12.7357646 10.9305118,12.0808018 10.7994185,11.3856856 C10.6934726,10.6417362 10.0554691,8.62294403 11.5433678,8.51583395 C12.3944273,8.51583395 12.7076078,9.04672739 12.5003731,9.68007395 C12.5003731,9.68007395 10.161415,18.819358 10.0554691,19.2443056" id="Shape" stroke-width="1.5"></path>
            </g>
        </g>
    </g>
</svg>