<svg xmlns="http://www.w3.org/2000/svg" viewBox="0 0 255 39">
  <defs>
    <style>
      .cls-1, .cls-3, .cls-4, .cls-6, .cls-9 {
        fill: none;
      }

      .cls-1 {
        stroke: #bebebe;
      }

      .cls-10, .cls-2 {
        fill: #bfbfbf;
      }

      .cls-3 {
        stroke: #bfbfbf;
      }

      .cls-5 {
        fill: #d3a38b;
      }

      .cls-6 {
        stroke: #d3a38b;
      }

      .cls-7 {
        fill: #fff;
      }

      .cls-10, .cls-8 {
        stroke: none;
      }
    </style>
  </defs>
  <g id="Group_9842" data-name="Group 9842" transform="translate(-155 -625)">
    <line id="Line_2970" data-name="Line 2970" class="cls-1" x2="216" transform="translate(174.5 644.5)"/>
    <g id="Group_9827" data-name="Group 9827" transform="translate(-177 -30)">
      <circle id="Ellipse_203" data-name="Ellipse 203" class="cls-2" cx="17.5" cy="17.5" r="17.5" transform="translate(406 657)"/>
      <g id="Ellipse_204" data-name="Ellipse 204" class="cls-3" transform="translate(404 655)">
        <circle class="cls-8" cx="19.5" cy="19.5" r="19.5"/>
        <circle class="cls-9" cx="19.5" cy="19.5" r="19"/>
      </g>
    </g>
    <g id="Group_9828" data-name="Group 9828" transform="translate(-105 -30)">
      <circle id="Ellipse_203-2" data-name="Ellipse 203" class="cls-2" cx="17.5" cy="17.5" r="17.5" transform="translate(406 657)"/>
      <g id="Path_9582" data-name="Path 9582" class="cls-4" transform="translate(404 655)">
        <path class="cls-8" d="M19.5,0A19.5,19.5,0,1,1,0,19.5,19.5,19.5,0,0,1,19.5,0Z"/>
        <path class="cls-10" d="M 19.5 1 C 17.0020809173584 1 14.57939910888672 1.488998413085938 12.29927062988281 2.453411102294922 C 10.0964298248291 3.385139465332031 8.117860794067383 4.719188690185547 6.418529510498047 6.418529510498047 C 4.719188690185547 8.117860794067383 3.385139465332031 10.0964298248291 2.453411102294922 12.29927062988281 C 1.488998413085938 14.57939910888672 1 17.0020809173584 1 19.5 C 1 21.9979190826416 1.488998413085938 24.42060089111328 2.453411102294922 26.70072937011719 C 3.385139465332031 28.9035701751709 4.719188690185547 30.88214111328125 6.418529510498047 32.58147048950195 C 8.117860794067383 34.28081130981445 10.0964298248291 35.61486053466797 12.29927062988281 36.54658889770508 C 14.57939910888672 37.51100158691406 17.0020809173584 38 19.5 38 C 21.9979190826416 38 24.42060089111328 37.51100158691406 26.70072937011719 36.54658889770508 C 28.9035701751709 35.61486053466797 30.88214111328125 34.28081130981445 32.58147048950195 32.58147048950195 C 34.28081130981445 30.88214111328125 35.61486053466797 28.9035701751709 36.54658889770508 26.70072937011719 C 37.51100158691406 24.42060089111328 38 21.9979190826416 38 19.5 C 38 17.0020809173584 37.51100158691406 14.57939910888672 36.54658889770508 12.29927062988281 C 35.61486053466797 10.0964298248291 34.28081130981445 8.117860794067383 32.58147048950195 6.418529510498047 C 30.88214111328125 4.719188690185547 28.9035701751709 3.385139465332031 26.70072937011719 2.453411102294922 C 24.42060089111328 1.488998413085938 21.9979190826416 1 19.5 1 M 19.5 0 C 30.26955032348633 0 39 8.730449676513672 39 19.5 C 39 30.26955032348633 30.26955032348633 39 19.5 39 C 8.730449676513672 39 0 30.26955032348633 0 19.5 C 0 8.730449676513672 8.730449676513672 0 19.5 0 Z"/>
      </g>
    </g>
    <g id="Group_9829" data-name="Group 9829" transform="translate(-33 -30)">
      <circle id="Ellipse_203-3" data-name="Ellipse 203" class="cls-2" cx="17.5" cy="17.5" r="17.5" transform="translate(406 657)"/>
      <g id="Ellipse_204-2" data-name="Ellipse 204" class="cls-3" transform="translate(404 655)">
        <circle class="cls-8" cx="19.5" cy="19.5" r="19.5"/>
        <circle class="cls-9" cx="19.5" cy="19.5" r="19"/>
      </g>
    </g>
    <g id="Group_9826" data-name="Group 9826" transform="translate(-249 -30)">
      <circle id="Ellipse_203-4" data-name="Ellipse 203" class="cls-5" cx="17.5" cy="17.5" r="17.5" transform="translate(406 657)"/>
      <g id="Ellipse_204-3" data-name="Ellipse 204" class="cls-6" transform="translate(404 655)">
        <circle class="cls-8" cx="19.5" cy="19.5" r="19.5"/>
        <circle class="cls-9" cx="19.5" cy="19.5" r="19"/>
      </g>
    </g>
    <path id="Path_9600" data-name="Path 9600" class="cls-7" d="M913.305,493.439V503.9h-1.719V493.742l-4.829,10.182h-.646L901.5,493.742V503.9h-.687V493.439c0-.95-.021-1.839-.021-1.839h1.636L907,501.742l4.829-10.142H913.3Z" transform="translate(-732.518 146.422)"/>
    <path id="Path_9601" data-name="Path 9601" class="cls-7" d="M913.305,493.439V503.9h-1.719V493.742l-4.829,10.182h-.646L901.5,493.742V503.9h-.687V493.439c0-.95-.021-1.839-.021-1.839h1.636L907,501.742l4.829-10.142H913.3Z" transform="translate(-660.518 146.422)"/>
    <path id="Path_9602" data-name="Path 9602" class="cls-7" d="M913.305,493.439V503.9h-1.719V493.742l-4.829,10.182h-.646L901.5,493.742V503.9h-.687V493.439c0-.95-.021-1.839-.021-1.839h1.636L907,501.742l4.829-10.142H913.3Z" transform="translate(-588.518 146.422)"/>
    <path id="Path_9603" data-name="Path 9603" class="cls-7" d="M913.305,493.439V503.9h-1.719V493.742l-4.829,10.182h-.646L901.5,493.742V503.9h-.687V493.439c0-.95-.021-1.839-.021-1.839h1.636L907,501.742l4.829-10.142H913.3Z" transform="translate(-516.518 146.422)"/>
  </g>
</svg>
