<?xml version="1.0" encoding="UTF-8" standalone="no"?>
<svg width="28px" height="28px" viewBox="0 0 28 28" version="1.1" xmlns="http://www.w3.org/2000/svg" xmlns:xlink="http://www.w3.org/1999/xlink">
    <!-- Generator: Sketch 50.2 (55047) - http://www.bohemiancoding.com/sketch -->
    <title>Artboard 10</title>
    <desc>Created with Sketch.</desc>
    <defs></defs>
    <g id="Page-1" stroke="none" stroke-width="1" fill="none" fill-rule="evenodd">
        <g id="Artboard-10-Copy" transform="translate(-2.000000, -2.000000)" stroke="#000000">
            <g id="Group" transform="translate(3.000000, 3.000000)">
                <path d="M12.844415,0.555672753 C7.81115537,0.618680625 3.31146658,3.70747039 1.44357493,8.38172468 C-0.42431672,13.055979 0.707444245,18.3951679 4.31111229,21.9096023 C7.91478034,25.4240366 13.2806628,26.4215971 17.9066231,24.4371164 C22.5325834,22.4526358 25.5076026,17.8769301 25.444415,12.8436728 C25.405522,9.54252472 24.0555638,6.39232313 21.6920586,4.08734282 C19.3285535,1.78236252 16.1455006,0.51179908 12.844415,0.555672753 Z" id="Shape" stroke-width="0.9"></path>
                <path d="M19.3021799,8.92164994 C18.7566071,9.09883382 18.1864907,9.18881084 17.6128676,9.1882609 C17.1514422,8.6771996 16.5092764,8.36571996 15.8222665,8.31973786 C14.4595433,8.34872176 13.3615783,9.44617348 13.3319571,10.808883 C13.3512116,10.9897862 13.381146,11.1693926 13.4216036,11.3467619 C11.4287985,11.2937883 9.56610322,10.3451182 8.35133841,8.76447754 C8.10100733,9.12978799 7.97636616,9.56664509 7.99624521,10.0090501 C7.99428098,10.8246147 8.39345336,11.5890059 9.06385329,12.0534555 C8.6894628,12.0719761 8.31797297,11.9792049 7.99624521,11.7868446 L7.82859465,11.7868446 C7.82859465,13.0314171 9.47250153,13.9989006 10.5401096,14.1735366 C10.1164748,14.3942851 9.65371564,14.5299487 9.17794881,14.5728709 L8.73204489,14.5728709 C9.12255401,15.5272607 10.0806285,16.1240632 11.109423,16.0537842 C10.3084259,16.6754883 9.67624353,16.5322868 8.52015321,16.5322868 L7.89728481,16.5322868 C8.54797051,17.7231553 9.84744428,18.4097908 11.1979052,18.2763183 C13.0620825,18.2570065 14.8418073,17.4960354 16.1436738,16.1616167 C17.4455404,14.827198 18.1623351,13.0292262 18.1356114,11.1651404 L18.1356114,10.808883 C18.7192471,10.323314 19.1287735,9.66079686 19.3021799,8.92164994 Z" id="Shape" stroke-width="0.87318" fill="#000000"></path>
            </g>
        </g>
    </g>
</svg>