<?xml version="1.0" encoding="UTF-8"?>
<svg width="21px" height="8px" viewBox="0 0 21 8" version="1.1" xmlns="http://www.w3.org/2000/svg" xmlns:xlink="http://www.w3.org/1999/xlink">
    <!-- Generator: Sketch 50.2 (55047) - http://www.bohemiancoding.com/sketch -->
    <title>TOP</title>
    <desc>Created with Sketch.</desc>
    <defs></defs>
    <g id="Page-1" stroke="none" stroke-width="1" fill="none" fill-rule="evenodd">
        <g id="Desktop" transform="translate(-996.000000, -414.000000)" fill="#1C1C1C">
            <g id="Group" transform="translate(995.000000, 403.000000)">
                <path d="M3.51106232,12.091794 L1,12.091794 L1,11.1554657 L7.10741429,11.1554657 L7.10741429,12.091794 L4.59635197,12.091794 L4.59635197,18.8695343 L3.51106232,18.8695343 L3.51106232,12.091794 Z M11.0850363,19.0078555 C8.86125655,19.0078555 7.46740416,17.3373607 7.46740416,15.00718 C7.46740416,12.6769992 8.86125655,11.0171445 11.0850363,11.0171445 C13.3088161,11.0171445 14.7026685,12.6769992 14.7026685,15.00718 C14.7026685,17.3373607 13.3088161,19.0078555 11.0850363,19.0078555 Z M11.0850363,18.0928074 C12.4895288,18.0928074 13.5960986,16.9968776 13.5960986,15.00718 C13.5960986,13.0174823 12.4895288,11.9321926 11.0850363,11.9321926 C9.68054383,11.9321926 8.57397399,13.0174823 8.57397399,15.00718 C8.57397399,16.9968776 9.68054383,18.0928074 11.0850363,18.0928074 Z M18.7973315,11.1554657 C20.6806283,11.1554657 22,11.5810695 22,13.4856464 C22,15.4008635 20.6806283,15.8158271 18.7973315,15.8158271 L17.4673197,15.8158271 L17.4673197,18.8695343 L16.3820301,18.8695343 L16.3820301,11.1554657 L18.7973315,11.1554657 Z M17.4673197,12.0705139 L17.4673197,14.8688587 L18.8824523,14.8688587 C20.0103023,14.8688587 20.8934302,14.7518177 20.8934302,13.4856464 C20.8934302,12.2301153 20.0103023,12.0705139 18.8824523,12.0705139 L17.4673197,12.0705139 Z" id="TOP"></path>
            </g>
        </g>
    </g>
</svg>