<svg xmlns="http://www.w3.org/2000/svg" xmlns:xlink="http://www.w3.org/1999/xlink" viewBox="0 0 43.504 48.01">
  <defs>
    <style>
      .cls-1, .cls-3, .cls-4 {
        fill: none;
      }

      .cls-1, .cls-4 {
        stroke: #f54a35;
      }

      .cls-1 {
        stroke-width: 0.75px;
      }

      .cls-2 {
        clip-path: url(#clip-path);
      }

      .cls-3 {
        stroke: #f8472b;
      }

      .cls-5 {
        clip-path: url(#clip-path-2);
      }
    </style>
    <clipPath id="clip-path">
      <rect id="矩形_3147" data-name="矩形 3147" width="40.812" height="46.7"/>
    </clipPath>
    <clipPath id="clip-path-2">
      <rect id="矩形_3148" data-name="矩形 3148" class="cls-1" width="12.093" height="12.093"/>
    </clipPath>
  </defs>
  <g id="组_9841" data-name="组 9841" transform="translate(-321 -1023.624)">
    <g id="组_9725" data-name="组 9725" transform="translate(321.5 1024.124)">
      <g id="app_shop_o" class="cls-2" transform="translate(0.32 0.81)">
        <g id="组_9724" data-name="组 9724" transform="translate(7.652 7.981)">
          <path id="路径_9534" data-name="路径 9534" class="cls-3" d="M3,5.9h21.72l2.237,26.132H.6Z" transform="translate(-0.6 2.972)"/>
          <path id="路径_9535" data-name="路径 9535" class="cls-3" d="M5.6,13.478V6.085C5.6,3,7.785.5,10.481.5S15.362,3,15.362,6.085v7.23" transform="translate(2.912 -0.499)"/>
        </g>
      </g>
      <line id="直线_2127" data-name="直线 2127" class="cls-4" x2="43" y2="0.376" transform="translate(0 0)"/>
      <line id="直线_2128" data-name="直线 2128" class="cls-4" y1="38.376" transform="translate(0 0)"/>
    </g>
    <g id="favorite_filled_b" class="cls-5" transform="translate(352.392 1028.422)">
      <g id="组_9726" data-name="组 9726" transform="translate(0.17 0.221)">
        <path id="路径_9536" data-name="路径 9536" class="cls-1" d="M9.308,12.408,6.072,10.673,5.938,10.6l-.134.072L2.568,12.408l.62-3.684.024-.145-.1-.1L.478,5.862l3.628-.538L4.255,5.3l.065-.135L5.938,1.825,7.555,5.168,7.62,5.3l.148.022,3.629.538L8.768,8.476l-.1.1.024.145Z" transform="translate(-0.117 -1.442)"/>
        <path id="路径_9537" data-name="路径 9537" class="cls-1" d="M5.821,2.352,4.459,5.167l-.131.27-.3.044L.962,5.936,3.191,8.151l.208.207-.049.289-.524,3.114L5.553,10.3l.268-.144.268.144,2.727,1.462L8.292,8.647l-.049-.289.208-.207L10.68,5.936,7.61,5.481l-.3-.044-.131-.27L5.821,2.352m0-1.034a.208.208,0,0,1,.187.119L7.693,4.92l3.77.559a.21.21,0,0,1,.168.145.216.216,0,0,1-.053.218L8.851,8.553l.644,3.829a.214.214,0,0,1-.083.208.205.205,0,0,1-.22.016L5.821,10.8,2.449,12.606a.2.2,0,0,1-.1.025.2.2,0,0,1-.122-.041.215.215,0,0,1-.083-.208l.644-3.829L.063,5.842A.215.215,0,0,1,.01,5.624a.21.21,0,0,1,.168-.145l3.77-.559L5.634,1.437A.207.207,0,0,1,5.821,1.318Z" transform="translate(0 -1.318)"/>
      </g>
    </g>
  </g>
</svg>
