<svg xmlns="http://www.w3.org/2000/svg" viewBox="0 0 800.002 114.285">
  <g id="Final_Logo_Mark-01" data-name="Final_Logo+Mark-01" transform="translate(-449.199 -477.801)">
    <path id="路径_1" data-name="路径 1" d="M561.106,497.79v92.9H545.719s.075-8.642.075-16.019V500.4l-43.156,90.3h-5.779l-41.2-90.3v74.278c0,7.525-.075,16.019-.075,16.019h-6.155s-.075-8.642-.075-16.019V497.79c0-8.493-.15-16.39-.15-16.39h14.635l40.9,90,43.156-90h13.21Z" transform="translate(0 -0.918)"/>
    <path id="路径_2" data-name="路径 2" d="M880.666,532.285c0,37.623-28.37,58.409-56.666,58.409H789.1s.075-7,.075-16.019V497.79c0-9.685.15-16.39.15-16.39h32.122C863.328,481.4,880.666,505.166,880.666,532.285Zm-76.33,43.062c0,8.493,5.7,9.313,9.982,9.313h9.606c24.543,0,40.08-16.986,40.08-48.575,0-24.735-15.461-48.574-45.333-48.574H804.336C804.936,487.435,804.336,575.346,804.336,575.346Z" transform="translate(-84.791 -0.918)"/>
    <path id="路径_3" data-name="路径 3" d="M1005.253,584.585l-.075,6.109H931.925s-.075-7-.075-16.019V497.79c0-9.685-.15-16.39-.15-16.39h69.875l.15,6.035H947.011v44.179l37.076.074v5.96H947.011v37.624c0,8.493,5.7,9.313,9.982,9.313h26.119C995.57,584.659,1005.253,584.585,1005.253,584.585Z" transform="translate(-120.365 -0.918)"/>
    <path id="路径_4" data-name="路径 4" d="M1367.582,497.79v92.9h-8.406l-63.8-86.2v70.18c0,9.015.077,16.019.077,16.019h-6.906s-.074-7-.074-16.019V497.79c0-9.685-.075-16.39-.075-16.39h10.281l62,84.261V497.79c0-9.685.074-16.39.074-16.39h6.83Z" transform="translate(-209.348 -0.918)"/>
    <path id="路径_5" data-name="路径 5" d="M675.292,478c-31.748,0-57.491,25.554-57.491,57.068s25.743,57.068,57.491,57.068c32.948,0,57.491-25.554,57.491-57.068S708.24,478,675.292,478Zm4.128,105.792c-28.52,0-45.258-22.872-45.258-48.724s16.737-48.724,45.258-48.724c28.82,0,46.609,22.872,46.609,48.724S708.24,583.792,679.419,583.792Z" transform="translate(-42.059 -0.051)"/>
    <path id="路径_6" data-name="路径 6" d="M1241.553,584.585l-.076,6.109h-73.252s-.075-7-.075-16.019V497.79c0-9.685-.15-16.39-.15-16.39h69.875l.15,6.035h-54.713v44.179l37.076.074v5.96h-37.076v37.624c0,8.493,5.7,9.313,9.981,9.313h26.12C1231.872,584.659,1241.553,584.585,1241.553,584.585Z" transform="translate(-179.312 -0.918)"/>
    <path id="路径_7" data-name="路径 7" d="M1082.854,585.529c14.86,0,23.417-9.015,23.417-20.488,0-30.4-59.067-20.711-59.067-58.186,0-16.688,14.785-29.056,33.023-29.056a38.341,38.341,0,0,1,33.55,19.594l-6.68,6.631c-7.206-16.167-17.113-19.742-26.944-19.742-11.859,0-19.814,7.226-19.814,17.209,0,28.832,60.343,21.382,60.343,57.888,0,19.668-16.812,32.632-38.052,32.632-18.013,0-30.021-9.611-39.929-20.264l8.332-8.94C1057.561,579.122,1070.544,585.529,1082.854,585.529Z" transform="translate(-148.055 0)"/>
    <path id="路径_8" data-name="路径 8" d="M1451.354,585.529c14.86,0,23.415-9.015,23.415-20.488,0-30.4-59.065-20.711-59.065-58.186,0-16.688,14.785-29.056,33.022-29.056a38.341,38.341,0,0,1,33.55,19.594l-6.68,6.631c-7.206-16.167-17.112-19.742-26.944-19.742-11.86,0-19.814,7.226-19.814,17.209,0,28.832,60.343,21.382,60.343,57.888,0,19.668-16.813,32.632-38.052,32.632-18.014,0-30.022-9.611-39.929-20.264l8.331-8.94C1426.06,579.122,1439.045,585.529,1451.354,585.529Z" transform="translate(-239.981 0)"/>
  </g>
</svg>
