<?xml version="1.0" encoding="UTF-8" standalone="no"?>
<svg width="288px" height="66px" viewBox="0 0 288 66" version="1.1" xmlns="http://www.w3.org/2000/svg" xmlns:xlink="http://www.w3.org/1999/xlink">
    <!-- Generator: Sketch 50.2 (55047) - http://www.bohemiancoding.com/sketch -->
    <title>Artboard 33</title>
    <desc>Created with Sketch.</desc>
    <defs></defs>
    <g id="Page-1" stroke="none" stroke-width="1" fill="none" fill-rule="evenodd">
        <g id="Artboard-6-Copy-7" transform="translate(-55.000000, -71.000000)" fill="#000000">
            <g id="app_logo_b-copy" transform="translate(58.333333, 72.333333)" fill-rule="nonzero">
                <path d="M39.770156,6.97831989 L39.770156,40.0863391 L34.3281583,40.0863391 C34.3281583,40.0863391 34.3545069,37.0055806 34.3545069,34.3788287 L34.3545069,7.90660105 L19.0885381,40.0863391 L17.043482,40.0863391 L2.46663022,7.90660105 L2.46663022,34.3768019 C2.46663022,37.0582778 2.44028163,40.0843122 2.44028163,40.0843122 L0.263482574,40.0843122 C0.263482574,40.0843122 0.237133982,37.0035538 0.237133982,34.3768019 L0.237133982,6.97831989 C0.237133982,3.95228544 0.184436798,1.13703974 0.184436798,1.13703974 L5.36092171,1.13703974 L19.8303523,33.2093566 L35.0963211,1.13703974 L39.770156,1.13703974 L39.770156,6.97831989 Z" id="Shape"></path>
                <path d="M122.818891,19.2709514 C123.07131,24.73103 121.066462,30.0545069 117.275005,33.9916415 C113.483548,37.9287761 108.239405,40.1328155 102.773693,40.0863391 L90.4283642,40.0863391 C90.4283642,40.0863391 90.4547128,37.5913301 90.4547128,34.3788287 L90.4547128,6.97831989 C90.4547128,3.53273479 90.50741,1.13703974 90.50741,1.13703974 L101.869734,1.13703974 C116.685749,1.13703974 122.818891,9.60709864 122.818891,19.2709514 Z M95.8176646,34.615966 C95.8176646,37.6420005 97.8444794,37.9338618 99.348376,37.9338618 L102.747344,37.9338618 C111.430219,37.9338618 116.935048,31.8797661 116.935048,20.6228369 C116.935048,11.8082195 111.462648,3.31181198 100.898889,3.31181198 L95.8318523,3.31181198 C96.0304802,3.2874902 95.8176646,34.615966 95.8176646,34.615966 Z" id="Shape"></path>
                <path d="M154.305458,37.90954 L154.27911,40.0863391 L128.366283,40.0863391 C128.366283,40.0863391 128.339934,37.5913301 128.339934,34.3788287 L128.339934,6.97831989 C128.339934,3.53273479 128.287237,1.13703974 128.287237,1.13703974 L153.014377,1.13703974 L153.067074,3.2874902 L133.71302,3.2874902 L133.71302,19.0317873 L146.828539,19.0581359 L146.828539,21.1822378 L133.71302,21.1822378 L133.71302,34.5896174 C133.71302,37.6156519 135.739835,37.90954 137.243732,37.90954 L146.48398,37.90954 C150.882168,37.9358886 154.305458,37.90954 154.305458,37.90954 Z" id="Shape"></path>
                <path d="M251.002764,6.97831989 L251.002764,40.0863391 L248.029427,40.0863391 L225.460844,9.3679345 L225.460844,34.3768019 C225.460844,37.5893033 225.487193,40.0843122 225.487193,40.0843122 L223.044881,40.0843122 C223.044881,40.0843122 223.018532,37.5893033 223.018532,34.3768019 L223.018532,6.97831989 C223.018532,3.53273479 222.992184,1.13703974 222.992184,1.13703974 L226.62829,1.13703974 L248.558425,31.1643005 L248.558425,6.97831989 C248.558425,3.53273479 248.584774,1.13703974 248.584774,1.13703974 L251.000737,1.13703974 L251.002764,6.97831989 Z" id="Shape"></path>
                <path d="M65.2837002,0.233080352 C54.0518525,0.233080352 44.9466409,9.33829196 44.9466409,20.5701397 C44.9466409,31.8019874 54.0518525,40.907199 65.2837002,40.907199 C76.5155479,40.907199 85.6207596,31.8019874 85.6207596,20.5701397 C85.6207596,9.33829196 76.5155479,0.233080352 65.2837002,0.233080352 Z M66.7430068,37.931835 C56.6535229,37.931835 50.7311702,29.779986 50.7311702,20.5681129 C50.7311702,11.3562398 56.6514961,3.2043908 66.7430068,3.2043908 C76.9378851,3.2043908 83.231145,11.3562398 83.231145,20.5681129 C83.231145,29.779986 76.9399119,37.931835 66.7450337,37.931835 L66.7430068,37.931835 Z" id="Shape"></path>
                <path d="M217.043483,37.90954 L217.017134,40.0863391 L191.104307,40.0863391 C191.104307,40.0863391 191.077959,37.5913301 191.077959,34.3788287 L191.077959,6.97831989 C191.077959,3.53273479 191.025261,1.13703974 191.025261,1.13703974 L215.752402,1.13703974 L215.805099,3.2874902 L196.451045,3.2874902 L196.451045,19.0317873 L209.566563,19.0581359 L209.566563,21.1822378 L196.451045,21.1822378 L196.451045,34.5896174 C196.451045,37.6156519 198.477859,37.90954 199.981756,37.90954 L209.222004,37.90954 C213.620192,37.9358886 217.043483,37.90954 217.043483,37.90954 Z" id="Shape"></path>
                <path d="M171.963069,38.5723084 C177.220626,38.5723084 180.24666,35.359807 180.24666,31.2757753 C180.24666,20.4444772 159.352227,23.8941159 159.352227,10.5394334 C159.352227,4.59275891 164.583436,0.184436798 171.034787,0.184436798 C175.967116,0.178064687 180.513279,2.85250673 182.903815,7.16681366 L180.540549,9.53007968 C177.990816,3.76987212 174.486453,2.49500563 171.014519,2.49500563 C166.819013,2.49500563 164.005794,5.07108719 164.005794,8.62814711 C164.005794,18.9020711 185.352207,16.2489706 185.352207,29.2570678 C185.352207,36.2657932 179.405532,40.8869309 171.89213,40.8869309 C165.519824,40.8869309 161.271621,37.4616139 157.767258,33.6653899 L160.714247,30.4792371 C162.336322,35.3130334 166.864371,38.5707816 171.963069,38.5723084 Z" id="Shape"></path>
                <path d="M269.799444,38.5723084 C275.057002,38.5723084 278.083036,35.359807 278.083036,31.2757753 C278.083036,20.4444772 257.188603,23.8941159 257.188603,10.5394334 C257.188603,4.59275891 262.419811,0.184436798 268.871163,0.184436798 C273.803491,0.178064687 278.349655,2.85250673 280.74019,7.16681366 L278.376924,9.53007968 C275.827191,3.76987212 272.322828,2.49500563 268.850895,2.49500563 C264.655388,2.49500563 261.842169,5.07108719 261.842169,8.62814711 C261.842169,18.9020711 283.188582,16.2489706 283.188582,29.2570678 C283.188582,36.2657932 277.241908,40.8869309 269.728505,40.8869309 C263.3562,40.8869309 259.107996,37.4616139 255.603633,33.6653899 L258.550622,30.4792371 C260.173226,35.3126431 264.700949,38.5701558 269.799444,38.5723084 Z" id="Shape"></path>
            </g>
            <path d="M61.1293333,126.355665 L58.3933333,126.355665 L58.3933333,125.083665 L65.3893333,125.083665 L65.3893333,126.355665 L62.6533333,126.355665 L62.6533333,133.783665 L61.1293333,133.783665 L61.1293333,126.355665 Z M75.8586667,125.083665 L75.8586667,133.783665 L74.3346667,133.783665 L74.3346667,129.943665 L70.1826667,129.943665 L70.1826667,133.783665 L68.6586667,133.783665 L68.6586667,125.083665 L70.1826667,125.083665 L70.1826667,128.683665 L74.3346667,128.683665 L74.3346667,125.083665 L75.8586667,125.083665 Z M79.944,125.083665 L86.1,125.083665 L86.1,126.355665 L81.468,126.355665 L81.468,128.683665 L85.848,128.683665 L85.848,129.943665 L81.468,129.943665 L81.468,132.499665 L86.1,132.499665 L86.1,133.783665 L79.944,133.783665 L79.944,125.083665 Z M97.6186667,125.083665 C99.5266667,125.083665 101.314667,125.395665 101.314667,127.819665 C101.314667,130.015665 99.6946667,130.495665 97.6426667,130.495665 L96.2746667,130.495665 L96.2746667,133.783665 L94.7506667,133.783665 L94.7506667,125.083665 L97.6186667,125.083665 Z M96.2746667,126.307665 L96.2746667,129.247665 L97.6906667,129.247665 C98.8426667,129.247665 99.7306667,129.079665 99.7306667,127.831665 C99.7306667,126.415665 98.6866667,126.307665 97.6186667,126.307665 L96.2746667,126.307665 Z M108.112,130.111665 C107.968,130.123665 107.812,130.123665 107.656,130.123665 L106.18,130.123665 L106.18,133.783665 L104.656,133.783665 L104.656,125.083665 L107.428,125.083665 C109.996,125.083665 111.304,125.659665 111.304,127.591665 C111.304,128.707665 110.752,129.463665 109.672,129.835665 L111.664,133.783665 L109.948,133.783665 L108.112,130.111665 Z M106.18,126.307665 L106.18,128.911665 L107.692,128.911665 C109,128.911665 109.744,128.647665 109.744,127.603665 C109.744,126.463665 108.844,126.307665 107.644,126.307665 L106.18,126.307665 Z M115.137333,125.083665 L121.293333,125.083665 L121.293333,126.355665 L116.661333,126.355665 L116.661333,128.683665 L121.041333,128.683665 L121.041333,129.943665 L116.661333,129.943665 L116.661333,132.499665 L121.293333,132.499665 L121.293333,133.783665 L115.137333,133.783665 L115.137333,125.083665 Z M128.546667,133.783665 L126.338667,126.739665 L126.338667,133.783665 L124.850667,133.783665 L124.850667,125.083665 L127.214667,125.083665 L129.326667,132.019665 L131.426667,125.083665 L133.790667,125.083665 L133.790667,133.783665 L132.302667,133.783665 L132.302667,126.739665 L130.094667,133.783665 L128.546667,133.783665 Z M139.4,133.783665 L137.876,133.783665 L137.876,125.083665 L139.4,125.083665 L139.4,133.783665 Z M143.485333,125.083665 L149.641333,125.083665 L149.641333,126.355665 L145.009333,126.355665 L145.009333,128.683665 L149.389333,128.683665 L149.389333,129.943665 L145.009333,129.943665 L145.009333,132.499665 L149.641333,132.499665 L149.641333,133.783665 L143.485333,133.783665 L143.485333,125.083665 Z M156.654667,130.111665 C156.510667,130.123665 156.354667,130.123665 156.198667,130.123665 L154.722667,130.123665 L154.722667,133.783665 L153.198667,133.783665 L153.198667,125.083665 L155.970667,125.083665 C158.538667,125.083665 159.846667,125.659665 159.846667,127.591665 C159.846667,128.707665 159.294667,129.463665 158.214667,129.835665 L160.206667,133.783665 L158.490667,133.783665 L156.654667,130.111665 Z M154.722667,126.307665 L154.722667,128.911665 L156.234667,128.911665 C157.542667,128.911665 158.286667,128.647665 158.286667,127.603665 C158.286667,126.463665 157.386667,126.307665 156.186667,126.307665 L154.722667,126.307665 Z M170.957333,129.835665 C169.589333,129.559665 168.449333,128.851665 168.449333,127.375665 C168.449333,125.743665 170.141333,124.927665 171.737333,124.927665 C173.453333,124.927665 174.797333,125.707665 175.145333,127.519665 L173.669333,127.519665 C173.417333,126.475665 172.505333,126.175665 171.653333,126.175665 C170.981333,126.175665 169.985333,126.475665 169.985333,127.327665 C169.985333,127.999665 170.537333,128.335665 171.281333,128.479665 L172.349333,128.683665 C173.873333,128.983665 175.325333,129.535665 175.325333,131.287665 C175.325333,133.039665 173.585333,133.939665 171.869333,133.939665 C169.805333,133.939665 168.389333,132.811665 168.209333,130.903665 L169.709333,130.903665 C169.973333,132.091665 170.741333,132.691665 171.941333,132.691665 C172.973333,132.691665 173.801333,132.223665 173.801333,131.383665 C173.801333,130.495665 172.841333,130.195665 172.013333,130.039665 L170.957333,129.835665 Z M186.082667,125.083665 L186.082667,133.783665 L184.558667,133.783665 L184.558667,129.943665 L180.406667,129.943665 L180.406667,133.783665 L178.882667,133.783665 L178.882667,125.083665 L180.406667,125.083665 L180.406667,128.683665 L184.558667,128.683665 L184.558667,125.083665 L186.082667,125.083665 Z M193.972,133.939665 C191.416,133.939665 189.82,132.103665 189.82,129.427665 C189.82,126.751665 191.416,124.927665 193.972,124.927665 C196.528,124.927665 198.124,126.751665 198.124,129.427665 C198.124,132.103665 196.528,133.939665 193.972,133.939665 Z M193.972,132.691665 C195.412,132.691665 196.552,131.539665 196.552,129.427665 C196.552,127.315665 195.412,126.175665 193.972,126.175665 C192.532,126.175665 191.392,127.315665 191.392,129.427665 C191.392,131.539665 192.532,132.691665 193.972,132.691665 Z M204.729333,125.083665 C206.637333,125.083665 208.425333,125.395665 208.425333,127.819665 C208.425333,130.015665 206.805333,130.495665 204.753333,130.495665 L203.385333,130.495665 L203.385333,133.783665 L201.861333,133.783665 L201.861333,125.083665 L204.729333,125.083665 Z M203.385333,126.307665 L203.385333,129.247665 L204.801333,129.247665 C205.953333,129.247665 206.841333,129.079665 206.841333,127.831665 C206.841333,126.415665 205.797333,126.307665 204.729333,126.307665 L203.385333,126.307665 Z M214.634667,125.083665 C216.542667,125.083665 218.330667,125.395665 218.330667,127.819665 C218.330667,130.015665 216.710667,130.495665 214.658667,130.495665 L213.290667,130.495665 L213.290667,133.783665 L211.766667,133.783665 L211.766667,125.083665 L214.634667,125.083665 Z M213.290667,126.307665 L213.290667,129.247665 L214.706667,129.247665 C215.858667,129.247665 216.746667,129.079665 216.746667,127.831665 C216.746667,126.415665 215.702667,126.307665 214.634667,126.307665 L213.290667,126.307665 Z M223.196,133.783665 L221.672,133.783665 L221.672,125.083665 L223.196,125.083665 L223.196,133.783665 Z M232.441333,133.783665 L228.757333,126.835665 L228.757333,133.783665 L227.281333,133.783665 L227.281333,125.083665 L229.321333,125.083665 L233.005333,132.031665 L233.005333,125.083665 L234.481333,125.083665 L234.481333,133.783665 L232.441333,133.783665 Z M246.066667,127.843665 L244.614667,127.843665 C244.326667,126.775665 243.498667,126.175665 242.358667,126.175665 C240.882667,126.175665 239.790667,127.267665 239.790667,129.403665 C239.790667,131.515665 240.810667,132.691665 242.346667,132.691665 C243.378667,132.691665 244.674667,132.235665 244.674667,130.687665 L244.674667,130.519665 L242.454667,130.519665 L242.454667,129.235665 L246.090667,129.235665 L246.090667,133.783665 L244.890667,133.783665 L244.842667,132.739665 C244.326667,133.507665 243.366667,133.939665 242.178667,133.939665 C239.706667,133.939665 238.218667,132.127665 238.218667,129.403665 C238.218667,126.703665 239.814667,124.927665 242.394667,124.927665 C244.338667,124.927665 245.706667,125.995665 246.066667,127.843665 Z M257.525333,125.083665 L259.133333,125.083665 L262.397333,133.783665 L260.729333,133.783665 L260.045333,131.851665 L256.517333,131.851665 L255.845333,133.783665 L254.285333,133.783665 L257.525333,125.083665 Z M256.961333,130.579665 L259.589333,130.579665 L258.269333,126.847665 L256.961333,130.579665 Z M267.754667,129.835665 C266.386667,129.559665 265.246667,128.851665 265.246667,127.375665 C265.246667,125.743665 266.938667,124.927665 268.534667,124.927665 C270.250667,124.927665 271.594667,125.707665 271.942667,127.519665 L270.466667,127.519665 C270.214667,126.475665 269.302667,126.175665 268.450667,126.175665 C267.778667,126.175665 266.782667,126.475665 266.782667,127.327665 C266.782667,127.999665 267.334667,128.335665 268.078667,128.479665 L269.146667,128.683665 C270.670667,128.983665 272.122667,129.535665 272.122667,131.287665 C272.122667,133.039665 270.382667,133.939665 268.666667,133.939665 C266.602667,133.939665 265.186667,132.811665 265.006667,130.903665 L266.506667,130.903665 C266.770667,132.091665 267.538667,132.691665 268.738667,132.691665 C269.770667,132.691665 270.598667,132.223665 270.598667,131.383665 C270.598667,130.495665 269.638667,130.195665 268.810667,130.039665 L267.754667,129.835665 Z M278.056,129.835665 C276.688,129.559665 275.548,128.851665 275.548,127.375665 C275.548,125.743665 277.24,124.927665 278.836,124.927665 C280.552,124.927665 281.896,125.707665 282.244,127.519665 L280.768,127.519665 C280.516,126.475665 279.604,126.175665 278.752,126.175665 C278.08,126.175665 277.084,126.475665 277.084,127.327665 C277.084,127.999665 277.636,128.335665 278.38,128.479665 L279.448,128.683665 C280.972,128.983665 282.424,129.535665 282.424,131.287665 C282.424,133.039665 280.684,133.939665 278.968,133.939665 C276.904,133.939665 275.488,132.811665 275.308,130.903665 L276.808,130.903665 C277.072,132.091665 277.84,132.691665 279.04,132.691665 C280.072,132.691665 280.9,132.223665 280.9,131.383665 C280.9,130.495665 279.94,130.195665 279.112,130.039665 L278.056,129.835665 Z M287.505333,133.783665 L285.981333,133.783665 L285.981333,125.083665 L287.505333,125.083665 L287.505333,133.783665 Z M293.774667,129.835665 C292.406667,129.559665 291.266667,128.851665 291.266667,127.375665 C291.266667,125.743665 292.958667,124.927665 294.554667,124.927665 C296.270667,124.927665 297.614667,125.707665 297.962667,127.519665 L296.486667,127.519665 C296.234667,126.475665 295.322667,126.175665 294.470667,126.175665 C293.798667,126.175665 292.802667,126.475665 292.802667,127.327665 C292.802667,127.999665 293.354667,128.335665 294.098667,128.479665 L295.166667,128.683665 C296.690667,128.983665 298.142667,129.535665 298.142667,131.287665 C298.142667,133.039665 296.402667,133.939665 294.686667,133.939665 C292.622667,133.939665 291.206667,132.811665 291.026667,130.903665 L292.526667,130.903665 C292.790667,132.091665 293.558667,132.691665 294.758667,132.691665 C295.790667,132.691665 296.618667,132.223665 296.618667,131.383665 C296.618667,130.495665 295.658667,130.195665 294.830667,130.039665 L293.774667,129.835665 Z M303.476,126.355665 L300.74,126.355665 L300.74,125.083665 L307.736,125.083665 L307.736,126.355665 L305,126.355665 L305,133.783665 L303.476,133.783665 L303.476,126.355665 Z M312.529333,125.083665 L314.137333,125.083665 L317.401333,133.783665 L315.733333,133.783665 L315.049333,131.851665 L311.521333,131.851665 L310.849333,133.783665 L309.289333,133.783665 L312.529333,125.083665 Z M311.965333,130.579665 L314.593333,130.579665 L313.273333,126.847665 L311.965333,130.579665 Z M325.770667,133.783665 L322.086667,126.835665 L322.086667,133.783665 L320.610667,133.783665 L320.610667,125.083665 L322.650667,125.083665 L326.334667,132.031665 L326.334667,125.083665 L327.810667,125.083665 L327.810667,133.783665 L325.770667,133.783665 Z M333.816,126.355665 L331.08,126.355665 L331.08,125.083665 L338.076,125.083665 L338.076,126.355665 L335.34,126.355665 L335.34,133.783665 L333.816,133.783665 L333.816,126.355665 Z" id="THE-PREMIER-SHOPPING"></path>
        </g>
    </g>
</svg>