<svg xmlns="http://www.w3.org/2000/svg" width="51.158" height="38.917" viewBox="0 0 51.158 38.917">
  <g id="组_9717" data-name="组 9717" transform="translate(-3448.214 15850.793)">
    <path id="路径_153" data-name="路径 153" d="M5.6,14.488V6.52a6.02,6.02,0,0,1,12.04,0v7.791" transform="translate(3453.801 -15850.793)" fill="none" stroke="#ccc" stroke-width="1"/>
    <path id="路径_9506" data-name="路径 9506" d="M3483.792-15830.854l-1.031-9.4h-26.835l-2.882,28.105h32.464l-.658-5.793" transform="translate(-3.999 -0.479)" fill="none" stroke="#ccc" stroke-width="1.5"/>
    <path id="路径_9507" data-name="路径 9507" d="M-17.34-8.7V0h5.9V-1.056h-4.68V-3.948h4.4V-5h-4.4v-2.64h4.68V-8.7ZM-8.58,0V-3.5c0-1.38.624-2.112,1.56-2.112,1.188,0,1.38.864,1.38,1.86V0h1.092V-3.5c0-1.38.624-2.112,1.56-2.112,1.188,0,1.38.864,1.38,1.86V0H-.516V-4.08c0-1.476-.588-2.484-2.088-2.484a2.445,2.445,0,0,0-2.172,1.14,1.814,1.814,0,0,0-1.86-1.14A2.14,2.14,0,0,0-8.58-5.484v-.972H-9.672V0ZM2.688-6.456H1.6V2.1H2.688V-.972A2.276,2.276,0,0,0,4.8.156c1.476,0,2.76-1.224,2.76-3.36S6.276-6.564,4.8-6.564A2.276,2.276,0,0,0,2.688-5.436ZM4.524-.78C3.552-.78,2.64-1.5,2.64-3.2s.912-2.424,1.884-2.424c1.116,0,1.848.888,1.848,2.424S5.64-.78,4.524-.78Zm5.052-7.3v1.62H8.556v.876h1.02v3.96C9.576-.276,9.864,0,11.1,0h.792V-.912H11.34c-.624,0-.672-.168-.672-.84V-5.58h1.224v-.876H10.668v-1.62Zm8.8,1.62h-1.14l-1.6,4.98-1.644-4.98H12.78L15.108,0,15.06.132c-.288,1.008-.636,1.056-1.356,1.056H13.26V2.1h.564c1.44,0,1.776-.42,2.244-1.824Z" transform="translate(3481 -15822)" fill="#ccc"/>
  </g>
</svg>
