<svg xmlns="http://www.w3.org/2000/svg" xmlns:xlink="http://www.w3.org/1999/xlink" width="119" height="50" viewBox="0 0 119 50">
  <defs>
    <style>
      .cls-1 {
        clip-path: url(#clip-Order_bg);
      }

      .cls-2, .cls-3 {
        fill: none;
        stroke: #ccc;
      }

      .cls-2 {
        stroke-width: 0.75px;
      }

      .cls-4 {
        fill: #ccc;
      }
    </style>
    <clipPath id="clip-Order_bg">
      <rect width="119" height="50"/>
    </clipPath>
  </defs>
  <g id="Order_bg" data-name="Order bg" class="cls-1">
    <g id="组_9716" data-name="组 9716" transform="translate(-3118 15756)">
      <path id="路径_9505" data-name="路径 9505" class="cls-2" d="M5.6,12.849V5.815a5.315,5.315,0,0,1,10.63,0v6.878" transform="translate(3128.727 -15745.793)"/>
      <path id="路径_9506" data-name="路径 9506" class="cls-3" d="M3163.153-15725.138l.381,3.113h-23.608l2.351-20.229h19.315l.428,4.471" transform="translate(-12.425 6.225)"/>
      <path id="路径_9507" data-name="路径 9507" class="cls-4" d="M6.984,1.2H9.027V-8.7h-1.4V-.276L3.089-8.7H1.032V1.2h1.4V-7.253ZM17.79-2.447A3.5,3.5,0,0,0,14.252-6.27a3.5,3.5,0,0,0-3.538,3.823,3.5,3.5,0,0,0,3.538,3.823A3.5,3.5,0,0,0,17.79-2.447ZM14.252.284c-1.125,0-2.208-.778-2.208-2.731,0-2.007,1.083-2.731,2.208-2.731S16.46-4.4,16.46-2.447C16.46-.562,15.377.284,14.252.284ZM19.573-7.99v1.843H18.407v1h1.166V-.644c0,1.529.329,1.843,1.742,1.843h.905V.161h-.631c-.713,0-.768-.191-.768-.956V-5.15h1.4v-1h-1.4V-7.99Zm5.486,2.949V-8.7H23.811V1.2h1.248V-2.788c0-1.57.741-2.4,1.947-2.4,1.426,0,1.618.983,1.618,2.116V1.2h1.248V-3.443c0-1.679-.645-2.826-2.427-2.826A2.571,2.571,0,0,0,25.059-5.041ZM32.985-8.7H31.737v1.5h1.248Zm0,2.553H31.737V1.2h1.248Zm3.223,1.106V-6.147H34.96V1.2h1.248V-2.788c0-1.57.741-2.4,1.947-2.4,1.426,0,1.618.983,1.618,2.116V1.2h1.248V-3.443c0-1.679-.645-2.826-2.427-2.826A2.571,2.571,0,0,0,36.208-5.041ZM47.851-6.147v1.161A2.492,2.492,0,0,0,45.506-6.27c-1.632,0-3.127,1.324-3.127,3.673s1.495,3.673,3.127,3.673a2.483,2.483,0,0,0,2.345-1.27V.5a2.014,2.014,0,0,1-.48,1.625,1.973,1.973,0,0,1-1.509.546c-1.152,0-1.55-.505-1.714-1.161h-1.33C43.051,3,44.176,3.766,45.849,3.766A3.331,3.331,0,0,0,48.4,2.8,3.421,3.421,0,0,0,49.1.216V-6.147Zm-2.03.942c1.111,0,2.085.751,2.085,2.608S46.932.025,45.821.025C44.6.025,43.737-.917,43.737-2.6S44.6-5.2,45.821-5.2ZM54.681-7.99v1.843H53.515v1h1.166V-.644c0,1.529.329,1.843,1.742,1.843h.905V.161H56.7c-.713,0-.768-.191-.768-.956V-5.15h1.4v-1h-1.4V-7.99ZM65.309-2.447A3.5,3.5,0,0,0,61.771-6.27a3.5,3.5,0,0,0-3.538,3.823,3.5,3.5,0,0,0,3.538,3.823A3.5,3.5,0,0,0,65.309-2.447ZM61.771.284c-1.125,0-2.208-.778-2.208-2.731,0-2.007,1.083-2.731,2.208-2.731s2.208.778,2.208,2.731C63.979-.562,62.9.284,61.771.284ZM70.246-8.7V1.2h3.922c1.989,0,3.566-.819,3.566-2.922a2.325,2.325,0,0,0-1.509-2.348,2.477,2.477,0,0,0,1.1-2.185c0-1.966-1.646-2.444-3.5-2.444Zm1.4,4.233V-7.526h2.4c1.111,0,1.865.451,1.865,1.461,0,1.161-.727,1.6-1.865,1.6Zm0,4.492V-3.361H74.1c1.495,0,2.194.492,2.194,1.652,0,1.12-.7,1.734-2.112,1.734ZM83.836.148V1.2h1.248V-6.147H83.836v4.041c0,1.57-.7,2.4-1.879,2.4-1.358,0-1.55-.983-1.55-2.116V-6.147H79.16v4.7c0,1.679.645,2.826,2.359,2.826A2.484,2.484,0,0,0,83.836.148Zm8.626-6.294h-1.3L89.335-.48,87.457-6.147H86.072L88.732,1.2l-.055.15c-.329,1.147-.727,1.2-1.55,1.2H86.62V3.588h.645c1.646,0,2.03-.478,2.564-2.075Z" transform="translate(3135.038 -15722.146)"/>
    </g>
  </g>
</svg>
