<?xml version="1.0" encoding="UTF-8" standalone="no"?>
<svg width="25px" height="25px" viewBox="0 0 25 25" version="1.1" xmlns="http://www.w3.org/2000/svg" xmlns:xlink="http://www.w3.org/1999/xlink">
    <!-- Generator: Sketch 50.2 (55047) - http://www.bohemiancoding.com/sketch -->
    <title>s</title>
    <desc>Created with Sketch.</desc>
    <defs>
        <polygon id="path-1" points="0.000756 0.00544783998 8.05869216 0.00544783998 8.05869216 8.06399031 0.000756 8.06399031"></polygon>
    </defs>
    <g id="Page-1" stroke="none" stroke-width="1" fill="none" fill-rule="evenodd">
        <g id="Artboard-8">
            <g id="Group-39" transform="translate(5.000000, 5.000000)">
                <g id="Group-2" transform="translate(0.420000, 0.561979)" opacity="0.579757463" stroke="#000000" stroke-width="0.5">
                    <circle id="Oval" cx="6.94008" cy="6.94008" r="6.94008"></circle>
                </g>
                <g id="Page-1" transform="translate(3.328080, 3.470059)">
                    <mask id="mask-2" fill="white">
                        <use xlink:href="#path-1"></use>
                    </mask>
                    <g id="Clip-2"></g>
                    <path d="M4.0282578,2.6910702 C3.2883984,2.6910702 2.6845812,3.294837 2.6845812,4.0347468 C2.6845812,4.7745936 3.2883984,5.3783604 4.0282578,5.3783604 C4.7681172,5.3783604 5.3719344,4.7745936 5.3719344,4.0347468 C5.3719344,3.294837 4.7681172,2.6910702 4.0282578,2.6910702 Z" id="Fill-1" fill="#000000" mask="url(#mask-2)"></path>
                    <path d="M8.0582418,4.0347468 C8.0582418,3.4783182 8.063307,2.9269296 8.032059,2.3715468 C8.0007984,1.7263764 7.853643,1.1538702 7.3818738,0.6821136 C6.9091344,0.2093616 6.3375984,0.0631764 5.692491,0.0319788 C5.136075,0.0007182 4.5846738,0.0057456 4.029291,0.0057456 C3.472875,0.0057456 2.9214738,0.0007182 2.366091,0.0319788 C1.7209332,0.0631764 1.148427,0.2103948 0.6766578,0.6821136 C0.2039184,1.154853 0.0577332,1.7263764 0.026523,2.3715468 C-0.004725,2.9279628 0.0002898,3.4793136 0.0002898,4.0347468 C0.0002898,4.5901296 -0.004725,5.1425136 0.026523,5.6979468 C0.0577332,6.3430542 0.2049516,6.9155604 0.6766578,7.3873296 C1.1494098,7.860069 1.7209332,8.0062542 2.366091,8.0375022 C2.922507,8.0687628 3.4738578,8.063685 4.029291,8.063685 C4.585707,8.063685 5.1370578,8.0687628 5.692491,8.0375022 C6.3375984,8.0062542 6.9101172,7.8590862 7.3818738,7.3873296 C7.8546258,6.9145776 8.0007984,6.3430542 8.032059,5.6979468 C8.0642898,5.1425136 8.0582418,4.5911628 8.0582418,4.0347468 Z M4.0282578,6.1021296 C2.8841652,6.1021296 1.960875,5.1787764 1.960875,4.0347468 C1.960875,2.8906542 2.8841652,1.9673136 4.0282578,1.9673136 C5.1723504,1.9673136 6.095691,2.8906542 6.095691,4.0347468 C6.095691,5.1787764 5.1723504,6.1021296 4.0282578,6.1021296 Z M6.1803504,2.3654862 C5.913243,2.3654862 5.6975184,2.1497616 5.6975184,1.8826542 C5.6975184,1.6155468 5.913243,1.3998096 6.1803504,1.3998096 C6.4474578,1.3998096 6.6631824,1.6155468 6.6631824,1.8826542 C6.6621492,2.1507948 6.4474578,2.3654862 6.1803504,2.3654862 Z" id="Fill-3" fill="#000000" mask="url(#mask-2)"></path>
                </g>
            </g>
        </g>
    </g>
</svg>