<?xml version="1.0" encoding="UTF-8" standalone="no"?>
<svg width="26px" height="25px" viewBox="0 0 26 25" version="1.1" xmlns="http://www.w3.org/2000/svg" xmlns:xlink="http://www.w3.org/1999/xlink">
    <!-- Generator: Sketch 50.2 (55047) - http://www.bohemiancoding.com/sketch -->
    <title>Artboard 8 Copy 4</title>
    <desc>Created with Sketch.</desc>
    <defs></defs>
    <g id="Page-1" stroke="none" stroke-width="1" fill="none" fill-rule="evenodd">
        <g id="Artboard-8-Copy-2">
            <g id="Group-41" transform="translate(5.500000, 5.000000)">
                <path d="M5.57713379,8.3695756 C5.03986138,8.47733872 4.67722179,8.92819489 4.7674959,9.37596477 C4.85699843,9.82399184 5.36597982,10.0994436 5.90325224,9.99116612 C6.44052465,9.88314581 6.80342144,9.43228964 6.71314732,8.98451976 C6.6233876,8.53700707 6.11492059,8.2615553 5.57713379,8.3695756 L5.57713379,8.3695756 Z M9.95581397,6.62916275 C9.8236177,5.98335565 9.31386474,5.47411707 8.66857202,5.3419208 C8.51219977,5.31028628 8.35865662,5.41059085 8.32676491,5.56747748 C8.29461601,5.72359254 8.39543496,5.8766213 8.55180721,5.90902739 C8.97205763,5.99492925 9.30280552,6.32593433 9.38845019,6.74567037 C9.42059909,6.90229981 9.57362785,7.00286157 9.73025729,6.97096986 C9.88688673,6.93882096 9.98796287,6.785535 9.95581397,6.62916275 L9.95581397,6.62916275 Z M11.1064874,6.67134211 C11.1054586,5.30179897 9.99490704,4.19150456 8.62510671,4.19150456 C8.46513378,4.19150456 8.33576661,4.32087173 8.33576661,4.48084466 C8.33576661,4.64081759 8.46513378,4.76992757 8.62510671,4.76992757 C9.67521837,4.76992757 10.5272928,5.62174482 10.5272928,6.67262807 C10.5272928,6.83260099 10.6569172,6.96222536 10.8168901,6.96222536 C10.976863,6.96222536 11.1064874,6.83260099 11.1064874,6.67262807 L11.1064874,6.67134211 Z M6.26151958,10.6966416 C4.92746882,10.8285807 3.77602382,10.2226382 3.68935039,9.34175834 C3.60267695,8.46113567 4.61395275,7.63992417 5.9480035,7.50721351 C7.28282583,7.37450285 8.43401364,7.98070251 8.52042989,8.86106799 C8.60684613,9.74169065 7.59582752,10.5636737 6.26151958,10.6966416 L6.26151958,10.6966416 Z M8.92987828,7.77597831 C8.81671415,7.74177188 8.73827083,7.7178531 8.79819638,7.56611029 C8.92679198,7.23639118 8.94016593,6.9521949 8.80076829,6.74927104 C8.53920484,6.36888526 7.82344173,6.38894617 7.00300181,6.73924059 C7.00300181,6.7387262 6.74555342,6.85369067 6.81113717,6.6453658 C6.93741805,6.23257392 6.9183859,5.88690895 6.72189183,5.68707139 C6.27695105,5.23415768 5.09335715,5.70507477 4.0777091,6.73769744 C3.31745191,7.51132857 2.876369,8.33151131 2.876369,9.04058744 C2.876369,10.397271 4.58514734,11.3043844 6.25689014,11.3043844 C8.44893073,11.3043844 9.90669045,9.92583955 9.90669045,8.89681756 C9.90669045,8.27492924 9.39230805,7.92206291 8.92987828,7.77597831 L8.92987828,7.77597831 Z" id="Fill-1" fill="#252525"></path>
                <circle id="Oval-Copy-2" stroke="#000000" stroke-width="0.5" opacity="0.579757463" cx="6.9914282" cy="7.74794447" r="6.94008"></circle>
            </g>
        </g>
    </g>
</svg>