<?xml version="1.0" encoding="UTF-8" standalone="no"?>
<svg width="26px" height="25px" viewBox="0 0 26 25" version="1.1" xmlns="http://www.w3.org/2000/svg" xmlns:xlink="http://www.w3.org/1999/xlink">
    <!-- Generator: Sketch 50.2 (55047) - http://www.bohemiancoding.com/sketch -->
    <title>Artboard 8 Copy 5</title>
    <desc>Created with Sketch.</desc>
    <defs></defs>
    <g id="Page-1" stroke="none" stroke-width="1" fill="none" fill-rule="evenodd">
        <g id="Artboard-8-Copy-3" transform="translate(1.000000, 0.000000)">
            <g id="Group-47" transform="translate(5.000000, 5.000000)">
                <g id="Group-5" transform="translate(0.856722, 0.807864)" opacity="0.579757463" stroke="#000000" stroke-width="0.5">
                    <circle id="Oval-Copy-3" cx="6.94008" cy="6.94008" r="6.94008"></circle>
                </g>
                <path d="M5.39825192,6.17395663 C5.15044843,6.17395663 4.90059697,6.00807164 4.90059697,5.76026815 C4.90059697,5.51158696 5.15044843,5.34774994 5.39825192,5.34774994 C5.64605542,5.34774994 5.81077014,5.51158696 5.81077014,5.76026815 C5.81077014,6.00807164 5.64605542,6.17395663 5.39825192,6.17395663 M7.71127958,5.34774994 C7.96025334,5.34774994 8.12496806,5.51158696 8.12496806,5.76026815 C8.12496806,6.00807164 7.96025334,6.17395663 7.71127958,6.17395663 C7.46376865,6.17395663 7.21508746,6.00807164 7.21508746,5.76026815 C7.21508746,5.51158696 7.46376865,5.34774994 7.71127958,5.34774994 M9.48832613,6.24387993 C9.59569789,6.24387993 9.70160682,6.25177921 9.80663806,6.26348186 C9.52080097,4.93172093 8.09717428,3.94255491 6.47196954,3.94255491 C4.65513401,3.94255491 3.16685021,5.18069469 3.16685021,6.75323752 C3.16685021,7.66107016 3.66187207,8.40652861 4.48954159,8.98463924 L4.15894189,9.97877888 L5.31428545,9.39949798 C5.72768136,9.48141649 6.05945133,9.56538296 6.47196954,9.56538296 C6.57553795,9.56538296 6.67852122,9.56040934 6.78062679,9.55221749 C6.71596968,9.33133008 6.67852122,9.09991029 6.67852122,8.85971351 C6.67852122,7.41589976 7.91841639,6.24387993 9.48832613,6.24387993" id="Fill-2-Copy" fill="#000000"></path>
                <path d="M10.6042025,8.40647009 C10.4406581,8.40647009 10.2759434,8.24263307 10.2759434,8.07587039 C10.2759434,7.91115567 10.4406581,7.74527069 10.6042025,7.74527069 C10.852006,7.74527069 11.017891,7.91115567 11.017891,8.07587039 C11.017891,8.24263307 10.852006,8.40647009 10.6042025,8.40647009 M8.78619672,8.40647009 C8.62177457,8.40647009 8.45559702,8.24263307 8.45559702,8.07587039 C8.45559702,7.91115567 8.62177457,7.74527069 8.78619672,7.74527069 C9.03634075,7.74527069 9.1998852,7.91115567 9.1998852,8.07587039 C9.1998852,8.24263307 9.03634075,8.40647009 8.78619672,8.40647009 M12.5050045,8.82015857 C12.5050045,7.49863746 11.1826057,6.42140904 9.69754015,6.42140904 C8.12499732,6.42140904 6.88656498,7.49863746 6.88656498,8.82015857 C6.88656498,10.1437276 8.12499732,11.2186155 9.69754015,11.2186155 C10.026677,11.2186155 10.3587396,11.1355268 10.6893393,11.0527306 L11.5960016,11.5492152 L11.3473204,10.7233011 C12.0108604,10.2253536 12.5050045,9.56532445 12.5050045,8.82015857" id="Fill-4-Copy" fill="#000000"></path>
            </g>
        </g>
    </g>
</svg>